<?xml version="1.0" encoding="utf-8"?>
<!-- Generator: Adobe Illustrator 24.1.0, SVG Export Plug-In . SVG Version: 6.00 Build 0)  -->
<svg version="1.1" id="Layer_1" xmlns="http://www.w3.org/2000/svg" xmlns:xlink="http://www.w3.org/1999/xlink" x="0px" y="0px"
	 viewBox="0 0 615 76.9" style="enable-background:new 0 0 615 76.9;" xml:space="preserve">
<g id="Layer_1_1_">
</g>
<g>
	<path d="M41.4,60.2H18.7l-5.6,13.4H-0.3l31-71.4h0.7l31,71.4H46.7L41.4,60.2z M36.9,48.8l-6.6-16.7l-6.9,16.7H36.9z"/>
	<path d="M83.5,14.9v17.7h9.9v10.2h-9.9v30.8H70.4V42.8H64V32.7h6.3V14.9H83.5z"/>
	<path d="M113.2,0v73.6h-13.1V0H113.2z"/>
	<path d="M168.6,32.8v40.8h-13.1v-5c-3.9,4.1-8.5,6.2-13.6,6.2c-6,0-10.9-1.8-14.7-5.4c-3.8-3.6-5.6-9-5.6-16
		c0-4.5,0.9-8.4,2.8-11.8c1.8-3.4,4.3-6,7.3-7.9c3-1.9,6.3-2.8,9.8-2.8c3.6,0,6.5,0.5,8.6,1.6c2.1,1.1,4,2.6,5.6,4.6l0.8-4.2H168.6z
		 M155.6,57.9V48c-0.7-2-2-3.6-3.9-4.8c-1.8-1.2-4-1.8-6.5-1.8c-2.9,0-5.3,1.1-7.3,3.2c-2,2.1-3,4.8-3,8c0,2.1,0.5,4.1,1.5,5.8
		c1,1.8,2.3,3.2,4,4.2c1.6,1,3.4,1.5,5.4,1.5C150.2,64.1,153.5,62,155.6,57.9z"/>
	<path d="M217.5,34.3c2.6,2.3,3.9,5.2,4,8.8v30.5h-13.1V48c-0.2-4-2.2-6-6-6c-3,0-5.4,1.4-7.2,4.2c-1.8,2.8-2.7,6.4-2.7,10.8v16.6
		h-13.1V32.8h11.8l0.9,6.5c1.5-2.7,3.6-4.8,6.2-6.3c2.6-1.5,5.8-2.2,9.4-2.2C211.7,30.9,214.9,32,217.5,34.3z"/>
	<path d="M248,14.9v17.7h9.9v10.2H248v30.8h-13.1V42.8h-6.3V32.7h6.3V14.9H248z"/>
	<path d="M266.5,13.7c1.5-1.3,3.1-1.9,5-1.9c1.8,0,3.4,0.6,4.9,1.9c1.4,1.3,2.1,2.8,2.1,4.7c0,1.9-0.7,3.4-2.1,4.7
		c-1.4,1.2-3,1.9-4.9,1.9c-1.9,0-3.5-0.6-5-1.9c-1.5-1.2-2.2-2.8-2.2-4.7C264.4,16.5,265.1,14.9,266.5,13.7z M277.7,32.8v40.8h-13.1
		V32.8H277.7z"/>
	<path d="M316.9,73.4c-2.7,0.9-5.4,1.3-8,1.3c-7.1,0-12.7-1.9-16.8-5.7c-4.1-3.8-6.2-9.1-6.2-15.8c0-4.4,1-8.2,3-11.4
		c2-3.3,4.7-5.8,8-7.5c3.3-1.7,6.8-2.6,10.6-2.6c6.8,0,12.3,1.8,16.5,5.4l-6.3,8.4c-2.7-2.1-5.7-3.2-9-3.2c-2.7,0-5.1,1-7,3.1
		c-1.9,2.1-2.8,4.6-2.8,7.7c0,3.1,1,5.7,3.1,7.8c2.1,2.1,4.7,3.1,8,3.1c2.9,0,5.2-0.8,7.1-2.3l6.5,8.2
		C321.9,71.4,319.6,72.6,316.9,73.4z"/>
	<path d="M423,4.9l-31.3,71.8L360.3,4.9h16.2l15.7,38.7L407,4.9H423z"/>
	<path d="M429.8,13.7c1.5-1.3,3.1-1.9,5-1.9c1.8,0,3.4,0.6,4.9,1.9c1.4,1.3,2.1,2.8,2.1,4.7c0,1.9-0.7,3.4-2.1,4.7
		c-1.4,1.2-3,1.9-4.9,1.9c-1.9,0-3.5-0.6-5-1.9c-1.5-1.2-2.2-2.8-2.2-4.7C427.6,16.5,428.3,14.9,429.8,13.7z M440.9,32.8v40.8h-13.1
		V32.8H440.9z"/>
	<path d="M455.6,72.7c-2.9-1.2-5.4-2.8-7.3-4.9l5.4-7.2c3.6,3.4,7,5,10.2,5c1.7,0,3-0.3,4.1-0.8c1-0.5,1.5-1.3,1.5-2.4
		c0-1.2-0.6-2.2-1.8-2.8s-2.5-1.2-4-1.6c-1.5-0.4-2.4-0.7-2.9-0.8c-3.5-1.1-6.2-2.8-7.9-5c-1.7-2.2-2.6-4.7-2.6-7.6
		c0-2.2,0.6-4.3,1.7-6.4c1.2-2.1,2.9-3.8,5.4-5.1c2.4-1.3,5.4-2,9-2c3.4,0,6.2,0.3,8.6,1c2.4,0.7,4.6,1.8,6.8,3.4l-4.9,7.7
		c-1.2-1-2.6-1.8-4.2-2.5c-1.5-0.7-2.9-1-4.2-1c-1.5,0-2.7,0.3-3.6,0.9c-0.9,0.6-1.4,1.4-1.4,2.2c-0.1,1.3,0.5,2.3,1.6,2.9
		c1.2,0.7,2.9,1.3,5.4,2c0.4,0.1,0.8,0.2,1.2,0.4c0.4,0.1,0.8,0.2,1.3,0.4c6.4,2.1,9.6,6,9.6,11.6c0,2.6-0.7,5-2,7.2
		c-1.3,2.2-3.3,3.9-5.9,5.3c-2.6,1.3-5.9,2-9.7,2C461.7,74.5,458.6,73.9,455.6,72.7z"/>
	<path d="M507.7,14.9v17.7h9.9v10.2h-9.9v30.8h-13.1V42.8h-6.3V32.7h6.3V14.9H507.7z"/>
	<path d="M569,32.8v40.8h-13.1v-5c-3.9,4.1-8.5,6.2-13.6,6.2c-6,0-10.9-1.8-14.7-5.4c-3.8-3.6-5.6-9-5.6-16c0-4.5,0.9-8.4,2.8-11.8
		c1.8-3.4,4.3-6,7.3-7.9c3-1.9,6.3-2.8,9.8-2.8c3.6,0,6.5,0.5,8.6,1.6c2.1,1.1,4,2.6,5.6,4.6l0.8-4.2H569z M555.9,57.9V48
		c-0.7-2-2-3.6-3.9-4.8c-1.8-1.2-4-1.8-6.5-1.8c-2.9,0-5.3,1.1-7.3,3.2c-2,2.1-3,4.8-3,8c0,2.1,0.5,4.1,1.5,5.8c1,1.8,2.3,3.2,4,4.2
		c1.6,1,3.4,1.5,5.4,1.5C550.6,64.1,553.9,62,555.9,57.9z"/>
	<path d="M583.8,72.7c-2.9-1.2-5.4-2.8-7.3-4.9l5.4-7.2c3.6,3.4,7,5,10.2,5c1.7,0,3-0.3,4.1-0.8c1-0.5,1.5-1.3,1.5-2.4
		c0-1.2-0.6-2.2-1.8-2.8s-2.5-1.2-4-1.6c-1.5-0.4-2.4-0.7-2.9-0.8c-3.5-1.1-6.2-2.8-7.9-5c-1.7-2.2-2.6-4.7-2.6-7.6
		c0-2.2,0.6-4.3,1.7-6.4c1.2-2.1,2.9-3.8,5.4-5.1c2.4-1.3,5.4-2,9-2c3.4,0,6.2,0.3,8.6,1c2.4,0.7,4.6,1.8,6.8,3.4l-4.9,7.7
		c-1.2-1-2.6-1.8-4.2-2.5c-1.5-0.7-2.9-1-4.2-1c-1.5,0-2.7,0.3-3.6,0.9c-0.9,0.6-1.4,1.4-1.4,2.2c-0.1,1.3,0.5,2.3,1.6,2.9
		c1.2,0.7,2.9,1.3,5.4,2c0.4,0.1,0.8,0.2,1.2,0.4c0.4,0.1,0.8,0.2,1.3,0.4c6.4,2.1,9.6,6,9.6,11.6c0,2.6-0.7,5-2,7.2
		c-1.3,2.2-3.3,3.9-5.9,5.3c-2.6,1.3-5.9,2-9.7,2C589.9,74.5,586.8,73.9,583.8,72.7z"/>
</g>
</svg>
