<?xml version="1.0" encoding="UTF-8"?><svg id="wifi" xmlns="http://www.w3.org/2000/svg" viewBox="0 0 32 32"><path d="M29,11.96c-.25,0-.51-.1-.7-.29-6.78-6.73-17.81-6.73-24.59,0-.39,.39-1.03,.39-1.41,0-.39-.39-.39-1.03,0-1.41,7.56-7.5,19.85-7.5,27.41,0,.39,.39,.39,1.02,0,1.41-.2,.2-.45,.3-.71,.3Z"/><path d="M25.75,15.19c-.25,0-.51-.1-.7-.29-4.99-4.95-13.1-4.95-18.09,0-.39,.39-1.03,.39-1.41,0-.39-.39-.39-1.03,0-1.41,5.76-5.72,15.14-5.72,20.91,0,.39,.39,.39,1.02,0,1.41-.2,.2-.45,.3-.71,.3Z"/><path d="M22.5,18.41c-.25,0-.51-.1-.7-.29-3.2-3.17-8.4-3.17-11.59,0-.39,.39-1.03,.39-1.41,0-.39-.39-.39-1.03,0-1.41,3.97-3.94,10.44-3.94,14.41,0,.39,.39,.39,1.02,0,1.41-.2,.2-.45,.3-.71,.3Z"/><path d="M19.25,21.64c-.25,0-.51-.1-.7-.29-1.4-1.39-3.69-1.39-5.09,0-.39,.39-1.03,.39-1.41,0-.39-.39-.39-1.03,0-1.41,2.18-2.16,5.73-2.16,7.91,0,.39,.39,.39,1.02,0,1.41-.2,.2-.45,.3-.71,.3Z"/><circle cx="16" cy="24.37" r="2"/></svg>