<?xml version="1.0" encoding="UTF-8"?><svg id="double_bed" xmlns="http://www.w3.org/2000/svg" viewBox="0 0 32 32"><path d="M29,15.28v-3.28c0-.55-.45-1-1-1H4c-.55,0-1,.45-1,1v3.28c-.59,.35-1,.98-1,1.72v6.5c0,1.38,1.12,2.5,2.5,2.5h1.5v3c0,.55,.45,1,1,1h2c.43,0,.81-.28,.95-.68l1-3c.04-.11,.04-.21,.04-.32h10.23l.81,3.24c.11,.44,.51,.76,.97,.76h2c.55,0,1-.45,1-1v-3h1.5c1.38,0,2.5-1.12,2.5-2.5v-6.5c0-.74-.41-1.38-1-1.72Zm-2-.28h-10v-2h10v2Zm-12-2v2H5v-2H15Zm-6.72,15h-.28v-2h.95l-.67,2Zm15.72,0h-.22l-.5-2h.72v2Zm4-4.5c0,.28-.22,.5-.5,.5H4.5c-.28,0-.5-.22-.5-.5v-6.5H28v6.5Z"/><path d="M7,10c.55,0,1-.45,1-1V4.51c0-.28,.23-.51,.51-.51h14.99c.28,0,.51,.23,.51,.51v4.49c0,.55,.45,1,1,1s1-.45,1-1V4.51c0-1.38-1.12-2.51-2.51-2.51H8.51c-1.38,0-2.51,1.12-2.51,2.51v4.49c0,.55,.45,1,1,1Z"/></svg>